G75*
%MOIN*%
%OFA0B0*%
%FSLAX25Y25*%
%IPPOS*%
%LPD*%
%AMOC8*
5,1,8,0,0,1.08239X$1,22.5*
%
%ADD10C,0.00600*%
%ADD11C,0.00300*%
%ADD12C,0.00800*%
%ADD13C,0.01000*%
D10*
X0067300Y0022500D02*
X0089700Y0022500D01*
X0089700Y0159500D02*
X0079700Y0159500D01*
X0077300Y0159500D01*
X0068700Y0159500D01*
X0077300Y0159500D02*
X0077302Y0159431D01*
X0077308Y0159363D01*
X0077318Y0159295D01*
X0077331Y0159228D01*
X0077349Y0159162D01*
X0077370Y0159097D01*
X0077395Y0159033D01*
X0077423Y0158971D01*
X0077455Y0158910D01*
X0077490Y0158851D01*
X0077529Y0158795D01*
X0077571Y0158740D01*
X0077616Y0158689D01*
X0077664Y0158639D01*
X0077714Y0158593D01*
X0077767Y0158550D01*
X0077823Y0158509D01*
X0077880Y0158472D01*
X0077940Y0158439D01*
X0078002Y0158408D01*
X0078065Y0158382D01*
X0078129Y0158359D01*
X0078195Y0158339D01*
X0078262Y0158324D01*
X0078329Y0158312D01*
X0078397Y0158304D01*
X0078466Y0158300D01*
X0078534Y0158300D01*
X0078603Y0158304D01*
X0078671Y0158312D01*
X0078738Y0158324D01*
X0078805Y0158339D01*
X0078871Y0158359D01*
X0078935Y0158382D01*
X0078998Y0158408D01*
X0079060Y0158439D01*
X0079120Y0158472D01*
X0079177Y0158509D01*
X0079233Y0158550D01*
X0079286Y0158593D01*
X0079336Y0158639D01*
X0079384Y0158689D01*
X0079429Y0158740D01*
X0079471Y0158795D01*
X0079510Y0158851D01*
X0079545Y0158910D01*
X0079577Y0158971D01*
X0079605Y0159033D01*
X0079630Y0159097D01*
X0079651Y0159162D01*
X0079669Y0159228D01*
X0079682Y0159295D01*
X0079692Y0159363D01*
X0079698Y0159431D01*
X0079700Y0159500D01*
D11*
X0064486Y0161334D02*
X0061350Y0164470D01*
X0061350Y0162902D02*
X0064486Y0162902D01*
X0064486Y0164470D02*
X0061350Y0161334D01*
X0062918Y0161334D02*
X0062918Y0164470D01*
D12*
X0024563Y0003106D02*
X0007437Y0003106D01*
X0007437Y0048894D01*
X0024563Y0048894D01*
X0024563Y0003106D01*
X0016000Y0073500D02*
X0011000Y0073500D01*
X0008500Y0076000D01*
X0008500Y0081000D01*
X0011000Y0083500D01*
X0008500Y0086000D01*
X0008500Y0091000D01*
X0011000Y0093500D01*
X0008500Y0096000D01*
X0008500Y0101000D01*
X0011000Y0103500D01*
X0008500Y0106000D01*
X0008500Y0111000D01*
X0011000Y0113500D01*
X0008500Y0116000D01*
X0008500Y0121000D01*
X0011000Y0123500D01*
X0008500Y0126000D01*
X0008500Y0131000D01*
X0011000Y0133500D01*
X0016000Y0133500D01*
X0018500Y0131000D01*
X0018500Y0126000D01*
X0016000Y0123500D01*
X0018500Y0121000D01*
X0018500Y0116000D01*
X0016000Y0113500D01*
X0018500Y0111000D01*
X0018500Y0106000D01*
X0016000Y0103500D01*
X0018500Y0101000D01*
X0018500Y0096000D01*
X0016000Y0093500D01*
X0018500Y0091000D01*
X0018500Y0086000D01*
X0016000Y0083500D01*
X0018500Y0081000D01*
X0018500Y0076000D01*
X0016000Y0073500D01*
X0018500Y0165500D02*
X0018500Y0168500D01*
X0017500Y0168500D01*
X0018500Y0168500D02*
X0018500Y0171500D01*
X0038500Y0171500D01*
X0038500Y0168500D01*
X0039500Y0168500D01*
X0038500Y0168500D02*
X0038500Y0165500D01*
X0018500Y0165500D01*
X0100500Y0123500D02*
X0100500Y0103500D01*
X0103500Y0103500D01*
X0103500Y0102500D01*
X0103500Y0103500D02*
X0106500Y0103500D01*
X0106500Y0123500D01*
X0103500Y0123500D01*
X0103500Y0124500D01*
X0103500Y0123500D02*
X0100500Y0123500D01*
X0123500Y0161000D02*
X0121000Y0163500D01*
X0121000Y0168500D01*
X0123500Y0171000D01*
X0128500Y0171000D01*
X0131000Y0168500D01*
X0133500Y0171000D01*
X0138500Y0171000D01*
X0141000Y0168500D01*
X0141000Y0163500D01*
X0138500Y0161000D01*
X0133500Y0161000D01*
X0131000Y0163500D01*
X0128500Y0161000D01*
X0123500Y0161000D01*
X0133500Y0151000D02*
X0138500Y0151000D01*
X0138500Y0091000D02*
X0133500Y0091000D01*
X0133500Y0081000D02*
X0138500Y0081000D01*
X0138500Y0011000D02*
X0133500Y0011000D01*
D13*
X0051500Y0036000D02*
X0051500Y0046000D01*
X0030500Y0046000D01*
X0030500Y0036000D01*
X0051500Y0036000D01*
X0041000Y0038500D02*
X0041000Y0043500D01*
X0039000Y0151000D02*
X0018000Y0151000D01*
X0018000Y0161000D01*
X0039000Y0161000D01*
X0039000Y0151000D01*
X0028500Y0153500D02*
X0028500Y0158500D01*
M02*
