G75*
%MOIN*%
%OFA0B0*%
%FSLAX25Y25*%
%IPPOS*%
%LPD*%
%AMOC8*
5,1,8,0,0,1.08239X$1,22.5*
%
%ADD10C,0.06500*%
%ADD11R,0.07400X0.07400*%
%ADD12C,0.07400*%
%ADD13C,0.08200*%
%ADD14C,0.04000*%
%ADD15C,0.04123*%
%ADD16C,0.08200*%
%ADD17C,0.04800*%
%ADD18C,0.00500*%
D10*
X0037063Y0026000D03*
X0044937Y0026000D03*
D11*
X0063500Y0156000D03*
D12*
X0063500Y0146000D03*
X0063500Y0136000D03*
X0063500Y0126000D03*
X0063500Y0116000D03*
X0063500Y0106000D03*
X0063500Y0096000D03*
X0063500Y0086000D03*
X0063500Y0076000D03*
X0063500Y0066000D03*
X0063500Y0056000D03*
X0063500Y0046000D03*
X0063500Y0036000D03*
X0063500Y0026000D03*
X0093500Y0026000D03*
X0093500Y0036000D03*
X0093500Y0046000D03*
X0093500Y0056000D03*
X0093500Y0066000D03*
X0093500Y0076000D03*
X0093500Y0086000D03*
X0093500Y0096000D03*
X0093500Y0106000D03*
X0093500Y0116000D03*
X0093500Y0126000D03*
X0093500Y0136000D03*
X0093500Y0146000D03*
X0093500Y0156000D03*
D13*
X0126000Y0166000D03*
X0136000Y0166000D03*
X0013500Y0128500D03*
X0013500Y0118500D03*
X0013500Y0108500D03*
X0013500Y0098500D03*
X0013500Y0088500D03*
X0013500Y0078500D03*
D14*
X0043500Y0168500D03*
X0103500Y0128500D03*
D15*
X0103500Y0098500D03*
X0013500Y0168500D03*
D16*
X0132300Y0146000D02*
X0139700Y0146000D01*
X0139700Y0136000D02*
X0132300Y0136000D01*
X0132300Y0126000D02*
X0139700Y0126000D01*
X0139700Y0116000D02*
X0132300Y0116000D01*
X0132300Y0106000D02*
X0139700Y0106000D01*
X0139700Y0096000D02*
X0132300Y0096000D01*
X0132300Y0076000D02*
X0139700Y0076000D01*
X0139700Y0066000D02*
X0132300Y0066000D01*
X0132300Y0056000D02*
X0139700Y0056000D01*
X0139700Y0046000D02*
X0132300Y0046000D01*
X0132300Y0036000D02*
X0139700Y0036000D01*
X0139700Y0026000D02*
X0132300Y0026000D01*
X0132300Y0016000D02*
X0139700Y0016000D01*
D17*
X0136000Y0016000D03*
X0136000Y0026000D03*
X0136000Y0036000D03*
X0136000Y0046000D03*
X0136000Y0056000D03*
X0136000Y0066000D03*
X0136000Y0076000D03*
D18*
X0014658Y0014153D02*
X0014447Y0014472D01*
X0014312Y0014831D01*
X0014260Y0015210D01*
X0014295Y0015611D01*
X0014419Y0015993D01*
X0014624Y0016339D01*
X0014901Y0016630D01*
X0015236Y0016853D01*
X0015612Y0016995D01*
X0016010Y0017050D01*
X0016403Y0016999D01*
X0016775Y0016862D01*
X0017107Y0016645D01*
X0017383Y0016360D01*
X0017588Y0016021D01*
X0017712Y0015645D01*
X0017750Y0015250D01*
X0017704Y0014867D01*
X0017573Y0014503D01*
X0017365Y0014178D01*
X0017089Y0013907D01*
X0016760Y0013705D01*
X0016394Y0013580D01*
X0016010Y0013540D01*
X0015629Y0013574D01*
X0015264Y0013692D01*
X0014935Y0013888D01*
X0014658Y0014153D01*
X0014859Y0013961D02*
X0017144Y0013961D01*
X0017545Y0014460D02*
X0014455Y0014460D01*
X0014295Y0014958D02*
X0017715Y0014958D01*
X0017730Y0015457D02*
X0014282Y0015457D01*
X0014406Y0015955D02*
X0017610Y0015955D01*
X0017292Y0016454D02*
X0014733Y0016454D01*
X0015499Y0016952D02*
X0016530Y0016952D01*
X0016040Y0024240D02*
X0016424Y0024280D01*
X0016790Y0024404D01*
X0017119Y0024607D01*
X0017394Y0024878D01*
X0017603Y0025203D01*
X0017733Y0025567D01*
X0017780Y0025950D01*
X0017742Y0026345D01*
X0017618Y0026721D01*
X0017412Y0027060D01*
X0017137Y0027345D01*
X0016805Y0027561D01*
X0016433Y0027699D01*
X0016040Y0027750D01*
X0015642Y0027695D01*
X0015266Y0027552D01*
X0014931Y0027330D01*
X0014654Y0027039D01*
X0014448Y0026693D01*
X0014325Y0026310D01*
X0014290Y0025910D01*
X0014342Y0025530D01*
X0014477Y0025172D01*
X0014688Y0024852D01*
X0014965Y0024588D01*
X0015294Y0024392D01*
X0015659Y0024274D01*
X0016040Y0024240D01*
X0016832Y0024430D02*
X0015230Y0024430D01*
X0014638Y0024929D02*
X0017427Y0024929D01*
X0017683Y0025427D02*
X0014381Y0025427D01*
X0014292Y0025926D02*
X0017777Y0025926D01*
X0017716Y0026424D02*
X0014362Y0026424D01*
X0014585Y0026923D02*
X0017496Y0026923D01*
X0017020Y0027421D02*
X0015068Y0027421D01*
X0015618Y0034994D02*
X0015254Y0035112D01*
X0014925Y0035308D01*
X0014648Y0035572D01*
X0014437Y0035892D01*
X0014302Y0036250D01*
X0014250Y0036630D01*
X0014285Y0037030D01*
X0014408Y0037413D01*
X0014614Y0037759D01*
X0014891Y0038050D01*
X0015226Y0038272D01*
X0015602Y0038415D01*
X0016000Y0038470D01*
X0016393Y0038419D01*
X0016765Y0038281D01*
X0017097Y0038065D01*
X0017372Y0037780D01*
X0017577Y0037441D01*
X0017702Y0037065D01*
X0017740Y0036670D01*
X0017693Y0036287D01*
X0017563Y0035923D01*
X0017354Y0035598D01*
X0017079Y0035327D01*
X0016750Y0035124D01*
X0016384Y0035000D01*
X0016000Y0034960D01*
X0015618Y0034994D01*
X0014831Y0035397D02*
X0017150Y0035397D01*
X0017545Y0035896D02*
X0014435Y0035896D01*
X0014282Y0036394D02*
X0017706Y0036394D01*
X0017718Y0036893D02*
X0014273Y0036893D01*
X0014401Y0037391D02*
X0017594Y0037391D01*
X0017266Y0037890D02*
X0014738Y0037890D01*
X0015532Y0038388D02*
X0016475Y0038388D01*
X0033808Y0040626D02*
X0033770Y0041020D01*
X0033817Y0041404D01*
X0033947Y0041767D01*
X0034156Y0042092D01*
X0034431Y0042363D01*
X0034760Y0042566D01*
X0035126Y0042690D01*
X0035510Y0042730D01*
X0035891Y0042696D01*
X0036256Y0042578D01*
X0036585Y0042382D01*
X0036862Y0042118D01*
X0037073Y0041798D01*
X0037208Y0041440D01*
X0037260Y0041060D01*
X0037225Y0040660D01*
X0037102Y0040277D01*
X0036896Y0039931D01*
X0036619Y0039640D01*
X0036284Y0039418D01*
X0035908Y0039275D01*
X0035510Y0039220D01*
X0035117Y0039272D01*
X0034745Y0039409D01*
X0034413Y0039625D01*
X0034138Y0039910D01*
X0033932Y0040249D01*
X0033808Y0040626D01*
X0033783Y0040881D02*
X0037244Y0040881D01*
X0037216Y0041379D02*
X0033814Y0041379D01*
X0034018Y0041878D02*
X0037021Y0041878D01*
X0036591Y0042376D02*
X0034452Y0042376D01*
X0033888Y0040382D02*
X0037136Y0040382D01*
X0036851Y0039884D02*
X0034163Y0039884D01*
X0034808Y0039385D02*
X0036199Y0039385D01*
X0044828Y0040626D02*
X0044790Y0041020D01*
X0044837Y0041404D01*
X0044967Y0041767D01*
X0045176Y0042092D01*
X0045451Y0042363D01*
X0045780Y0042566D01*
X0046146Y0042690D01*
X0046530Y0042730D01*
X0046911Y0042696D01*
X0047276Y0042578D01*
X0047605Y0042382D01*
X0047882Y0042118D01*
X0048093Y0041798D01*
X0048228Y0041440D01*
X0048280Y0041060D01*
X0048245Y0040660D01*
X0048122Y0040277D01*
X0047916Y0039931D01*
X0047639Y0039640D01*
X0047304Y0039418D01*
X0046928Y0039275D01*
X0046530Y0039220D01*
X0046137Y0039272D01*
X0045765Y0039409D01*
X0045433Y0039625D01*
X0045158Y0039910D01*
X0044952Y0040249D01*
X0044828Y0040626D01*
X0044803Y0040881D02*
X0048264Y0040881D01*
X0048236Y0041379D02*
X0044834Y0041379D01*
X0045038Y0041878D02*
X0048041Y0041878D01*
X0047611Y0042376D02*
X0045473Y0042376D01*
X0044908Y0040382D02*
X0048156Y0040382D01*
X0047871Y0039884D02*
X0045183Y0039884D01*
X0045828Y0039385D02*
X0047219Y0039385D01*
X0034374Y0154310D02*
X0033990Y0154270D01*
X0033609Y0154304D01*
X0033244Y0154422D01*
X0032915Y0154618D01*
X0032638Y0154882D01*
X0032427Y0155202D01*
X0032292Y0155560D01*
X0032240Y0155940D01*
X0032275Y0156340D01*
X0032398Y0156723D01*
X0032604Y0157069D01*
X0032881Y0157360D01*
X0033216Y0157582D01*
X0033592Y0157725D01*
X0033990Y0157780D01*
X0034383Y0157728D01*
X0034755Y0157591D01*
X0035087Y0157375D01*
X0035362Y0157090D01*
X0035568Y0156751D01*
X0035692Y0156374D01*
X0035730Y0155980D01*
X0035683Y0155596D01*
X0035553Y0155233D01*
X0035344Y0154908D01*
X0035069Y0154637D01*
X0034740Y0154434D01*
X0034374Y0154310D01*
X0034914Y0154541D02*
X0033043Y0154541D01*
X0032534Y0155040D02*
X0035429Y0155040D01*
X0035663Y0155539D02*
X0032300Y0155539D01*
X0032249Y0156037D02*
X0035724Y0156037D01*
X0035639Y0156536D02*
X0032338Y0156536D01*
X0032583Y0157034D02*
X0035396Y0157034D01*
X0034845Y0157533D02*
X0033141Y0157533D01*
X0024672Y0156374D02*
X0024710Y0155980D01*
X0024663Y0155596D01*
X0024533Y0155233D01*
X0024324Y0154908D01*
X0024049Y0154637D01*
X0023720Y0154434D01*
X0023354Y0154310D01*
X0022970Y0154270D01*
X0022589Y0154304D01*
X0022224Y0154422D01*
X0021895Y0154618D01*
X0021618Y0154882D01*
X0021407Y0155202D01*
X0021272Y0155560D01*
X0021220Y0155940D01*
X0021255Y0156340D01*
X0021378Y0156723D01*
X0021584Y0157069D01*
X0021861Y0157360D01*
X0022196Y0157582D01*
X0022572Y0157725D01*
X0022970Y0157780D01*
X0023363Y0157728D01*
X0023735Y0157591D01*
X0024067Y0157375D01*
X0024342Y0157090D01*
X0024548Y0156751D01*
X0024672Y0156374D01*
X0024619Y0156536D02*
X0021318Y0156536D01*
X0021229Y0156037D02*
X0024704Y0156037D01*
X0024643Y0155539D02*
X0021280Y0155539D01*
X0021514Y0155040D02*
X0024409Y0155040D01*
X0023894Y0154541D02*
X0022023Y0154541D01*
X0021563Y0157034D02*
X0024376Y0157034D01*
X0023825Y0157533D02*
X0022121Y0157533D01*
M02*
