%
M48
M72
T01C0.02756
T02C0.03543
T03C0.04000
T04C0.04400
%
T01
X37063Y26000
X44937Y26000
T02
X103500Y98500
X103500Y128500
X43500Y168500
X13500Y168500
T03
X16000Y15300
X16000Y26000
X16000Y36700
X35500Y41000
X46500Y41000
X13500Y78500
X13500Y88500
X13500Y98500
X13500Y108500
X13500Y118500
X13500Y128500
X23000Y156000
X34000Y156000
X126000Y166000
X136000Y166000
X136000Y76000
X136000Y76000
X136000Y66000
X136000Y66000
X136000Y56000
X136000Y56000
X136000Y46000
X136000Y46000
X136000Y36000
X136000Y36000
X136000Y26000
X136000Y26000
X136000Y16000
X136000Y16000
T04
X93500Y26000
X93500Y36000
X93500Y46000
X93500Y56000
X93500Y66000
X93500Y76000
X93500Y86000
X93500Y96000
X93500Y106000
X93500Y116000
X93500Y126000
X93500Y136000
X93500Y146000
X93500Y156000
X63500Y156000
X63500Y146000
X63500Y136000
X63500Y126000
X63500Y116000
X63500Y106000
X63500Y96000
X63500Y86000
X63500Y76000
X63500Y66000
X63500Y56000
X63500Y46000
X63500Y36000
X63500Y26000
X136000Y96000
X136000Y106000
X136000Y116000
X136000Y126000
X136000Y136000
X136000Y146000
M30
