G75*
%MOIN*%
%OFA0B0*%
%FSLAX25Y25*%
%IPPOS*%
%LPD*%
%AMOC8*
5,1,8,0,0,1.08239X$1,22.5*
%
%ADD10C,0.00000*%
%ADD11C,0.05700*%
%ADD12R,0.06600X0.06600*%
%ADD13C,0.06600*%
%ADD14C,0.07400*%
%ADD15C,0.07400*%
%ADD16C,0.08000*%
%ADD17C,0.03200*%
%ADD18C,0.02400*%
D10*
X0001000Y0001000D02*
X0001000Y0180961D01*
X0152201Y0180961D01*
X0152201Y0001000D01*
X0001000Y0001000D01*
X0134000Y0016000D02*
X0134002Y0016089D01*
X0134008Y0016178D01*
X0134018Y0016267D01*
X0134032Y0016355D01*
X0134049Y0016442D01*
X0134071Y0016528D01*
X0134097Y0016614D01*
X0134126Y0016698D01*
X0134159Y0016781D01*
X0134195Y0016862D01*
X0134236Y0016942D01*
X0134279Y0017019D01*
X0134326Y0017095D01*
X0134377Y0017168D01*
X0134430Y0017239D01*
X0134487Y0017308D01*
X0134547Y0017374D01*
X0134610Y0017438D01*
X0134675Y0017498D01*
X0134743Y0017556D01*
X0134814Y0017610D01*
X0134887Y0017661D01*
X0134962Y0017709D01*
X0135039Y0017754D01*
X0135118Y0017795D01*
X0135199Y0017832D01*
X0135281Y0017866D01*
X0135365Y0017897D01*
X0135450Y0017923D01*
X0135536Y0017946D01*
X0135623Y0017964D01*
X0135711Y0017979D01*
X0135800Y0017990D01*
X0135889Y0017997D01*
X0135978Y0018000D01*
X0136067Y0017999D01*
X0136156Y0017994D01*
X0136244Y0017985D01*
X0136333Y0017972D01*
X0136420Y0017955D01*
X0136507Y0017935D01*
X0136593Y0017910D01*
X0136677Y0017882D01*
X0136760Y0017850D01*
X0136842Y0017814D01*
X0136922Y0017775D01*
X0137000Y0017732D01*
X0137076Y0017686D01*
X0137150Y0017636D01*
X0137222Y0017583D01*
X0137291Y0017527D01*
X0137358Y0017468D01*
X0137422Y0017406D01*
X0137483Y0017342D01*
X0137542Y0017274D01*
X0137597Y0017204D01*
X0137649Y0017132D01*
X0137698Y0017057D01*
X0137743Y0016981D01*
X0137785Y0016902D01*
X0137823Y0016822D01*
X0137858Y0016740D01*
X0137889Y0016656D01*
X0137917Y0016571D01*
X0137940Y0016485D01*
X0137960Y0016398D01*
X0137976Y0016311D01*
X0137988Y0016222D01*
X0137996Y0016134D01*
X0138000Y0016045D01*
X0138000Y0015955D01*
X0137996Y0015866D01*
X0137988Y0015778D01*
X0137976Y0015689D01*
X0137960Y0015602D01*
X0137940Y0015515D01*
X0137917Y0015429D01*
X0137889Y0015344D01*
X0137858Y0015260D01*
X0137823Y0015178D01*
X0137785Y0015098D01*
X0137743Y0015019D01*
X0137698Y0014943D01*
X0137649Y0014868D01*
X0137597Y0014796D01*
X0137542Y0014726D01*
X0137483Y0014658D01*
X0137422Y0014594D01*
X0137358Y0014532D01*
X0137291Y0014473D01*
X0137222Y0014417D01*
X0137150Y0014364D01*
X0137076Y0014314D01*
X0137000Y0014268D01*
X0136922Y0014225D01*
X0136842Y0014186D01*
X0136760Y0014150D01*
X0136677Y0014118D01*
X0136593Y0014090D01*
X0136507Y0014065D01*
X0136420Y0014045D01*
X0136333Y0014028D01*
X0136244Y0014015D01*
X0136156Y0014006D01*
X0136067Y0014001D01*
X0135978Y0014000D01*
X0135889Y0014003D01*
X0135800Y0014010D01*
X0135711Y0014021D01*
X0135623Y0014036D01*
X0135536Y0014054D01*
X0135450Y0014077D01*
X0135365Y0014103D01*
X0135281Y0014134D01*
X0135199Y0014168D01*
X0135118Y0014205D01*
X0135039Y0014246D01*
X0134962Y0014291D01*
X0134887Y0014339D01*
X0134814Y0014390D01*
X0134743Y0014444D01*
X0134675Y0014502D01*
X0134610Y0014562D01*
X0134547Y0014626D01*
X0134487Y0014692D01*
X0134430Y0014761D01*
X0134377Y0014832D01*
X0134326Y0014905D01*
X0134279Y0014981D01*
X0134236Y0015058D01*
X0134195Y0015138D01*
X0134159Y0015219D01*
X0134126Y0015302D01*
X0134097Y0015386D01*
X0134071Y0015472D01*
X0134049Y0015558D01*
X0134032Y0015645D01*
X0134018Y0015733D01*
X0134008Y0015822D01*
X0134002Y0015911D01*
X0134000Y0016000D01*
X0134000Y0026000D02*
X0134002Y0026089D01*
X0134008Y0026178D01*
X0134018Y0026267D01*
X0134032Y0026355D01*
X0134049Y0026442D01*
X0134071Y0026528D01*
X0134097Y0026614D01*
X0134126Y0026698D01*
X0134159Y0026781D01*
X0134195Y0026862D01*
X0134236Y0026942D01*
X0134279Y0027019D01*
X0134326Y0027095D01*
X0134377Y0027168D01*
X0134430Y0027239D01*
X0134487Y0027308D01*
X0134547Y0027374D01*
X0134610Y0027438D01*
X0134675Y0027498D01*
X0134743Y0027556D01*
X0134814Y0027610D01*
X0134887Y0027661D01*
X0134962Y0027709D01*
X0135039Y0027754D01*
X0135118Y0027795D01*
X0135199Y0027832D01*
X0135281Y0027866D01*
X0135365Y0027897D01*
X0135450Y0027923D01*
X0135536Y0027946D01*
X0135623Y0027964D01*
X0135711Y0027979D01*
X0135800Y0027990D01*
X0135889Y0027997D01*
X0135978Y0028000D01*
X0136067Y0027999D01*
X0136156Y0027994D01*
X0136244Y0027985D01*
X0136333Y0027972D01*
X0136420Y0027955D01*
X0136507Y0027935D01*
X0136593Y0027910D01*
X0136677Y0027882D01*
X0136760Y0027850D01*
X0136842Y0027814D01*
X0136922Y0027775D01*
X0137000Y0027732D01*
X0137076Y0027686D01*
X0137150Y0027636D01*
X0137222Y0027583D01*
X0137291Y0027527D01*
X0137358Y0027468D01*
X0137422Y0027406D01*
X0137483Y0027342D01*
X0137542Y0027274D01*
X0137597Y0027204D01*
X0137649Y0027132D01*
X0137698Y0027057D01*
X0137743Y0026981D01*
X0137785Y0026902D01*
X0137823Y0026822D01*
X0137858Y0026740D01*
X0137889Y0026656D01*
X0137917Y0026571D01*
X0137940Y0026485D01*
X0137960Y0026398D01*
X0137976Y0026311D01*
X0137988Y0026222D01*
X0137996Y0026134D01*
X0138000Y0026045D01*
X0138000Y0025955D01*
X0137996Y0025866D01*
X0137988Y0025778D01*
X0137976Y0025689D01*
X0137960Y0025602D01*
X0137940Y0025515D01*
X0137917Y0025429D01*
X0137889Y0025344D01*
X0137858Y0025260D01*
X0137823Y0025178D01*
X0137785Y0025098D01*
X0137743Y0025019D01*
X0137698Y0024943D01*
X0137649Y0024868D01*
X0137597Y0024796D01*
X0137542Y0024726D01*
X0137483Y0024658D01*
X0137422Y0024594D01*
X0137358Y0024532D01*
X0137291Y0024473D01*
X0137222Y0024417D01*
X0137150Y0024364D01*
X0137076Y0024314D01*
X0137000Y0024268D01*
X0136922Y0024225D01*
X0136842Y0024186D01*
X0136760Y0024150D01*
X0136677Y0024118D01*
X0136593Y0024090D01*
X0136507Y0024065D01*
X0136420Y0024045D01*
X0136333Y0024028D01*
X0136244Y0024015D01*
X0136156Y0024006D01*
X0136067Y0024001D01*
X0135978Y0024000D01*
X0135889Y0024003D01*
X0135800Y0024010D01*
X0135711Y0024021D01*
X0135623Y0024036D01*
X0135536Y0024054D01*
X0135450Y0024077D01*
X0135365Y0024103D01*
X0135281Y0024134D01*
X0135199Y0024168D01*
X0135118Y0024205D01*
X0135039Y0024246D01*
X0134962Y0024291D01*
X0134887Y0024339D01*
X0134814Y0024390D01*
X0134743Y0024444D01*
X0134675Y0024502D01*
X0134610Y0024562D01*
X0134547Y0024626D01*
X0134487Y0024692D01*
X0134430Y0024761D01*
X0134377Y0024832D01*
X0134326Y0024905D01*
X0134279Y0024981D01*
X0134236Y0025058D01*
X0134195Y0025138D01*
X0134159Y0025219D01*
X0134126Y0025302D01*
X0134097Y0025386D01*
X0134071Y0025472D01*
X0134049Y0025558D01*
X0134032Y0025645D01*
X0134018Y0025733D01*
X0134008Y0025822D01*
X0134002Y0025911D01*
X0134000Y0026000D01*
X0134000Y0036000D02*
X0134002Y0036089D01*
X0134008Y0036178D01*
X0134018Y0036267D01*
X0134032Y0036355D01*
X0134049Y0036442D01*
X0134071Y0036528D01*
X0134097Y0036614D01*
X0134126Y0036698D01*
X0134159Y0036781D01*
X0134195Y0036862D01*
X0134236Y0036942D01*
X0134279Y0037019D01*
X0134326Y0037095D01*
X0134377Y0037168D01*
X0134430Y0037239D01*
X0134487Y0037308D01*
X0134547Y0037374D01*
X0134610Y0037438D01*
X0134675Y0037498D01*
X0134743Y0037556D01*
X0134814Y0037610D01*
X0134887Y0037661D01*
X0134962Y0037709D01*
X0135039Y0037754D01*
X0135118Y0037795D01*
X0135199Y0037832D01*
X0135281Y0037866D01*
X0135365Y0037897D01*
X0135450Y0037923D01*
X0135536Y0037946D01*
X0135623Y0037964D01*
X0135711Y0037979D01*
X0135800Y0037990D01*
X0135889Y0037997D01*
X0135978Y0038000D01*
X0136067Y0037999D01*
X0136156Y0037994D01*
X0136244Y0037985D01*
X0136333Y0037972D01*
X0136420Y0037955D01*
X0136507Y0037935D01*
X0136593Y0037910D01*
X0136677Y0037882D01*
X0136760Y0037850D01*
X0136842Y0037814D01*
X0136922Y0037775D01*
X0137000Y0037732D01*
X0137076Y0037686D01*
X0137150Y0037636D01*
X0137222Y0037583D01*
X0137291Y0037527D01*
X0137358Y0037468D01*
X0137422Y0037406D01*
X0137483Y0037342D01*
X0137542Y0037274D01*
X0137597Y0037204D01*
X0137649Y0037132D01*
X0137698Y0037057D01*
X0137743Y0036981D01*
X0137785Y0036902D01*
X0137823Y0036822D01*
X0137858Y0036740D01*
X0137889Y0036656D01*
X0137917Y0036571D01*
X0137940Y0036485D01*
X0137960Y0036398D01*
X0137976Y0036311D01*
X0137988Y0036222D01*
X0137996Y0036134D01*
X0138000Y0036045D01*
X0138000Y0035955D01*
X0137996Y0035866D01*
X0137988Y0035778D01*
X0137976Y0035689D01*
X0137960Y0035602D01*
X0137940Y0035515D01*
X0137917Y0035429D01*
X0137889Y0035344D01*
X0137858Y0035260D01*
X0137823Y0035178D01*
X0137785Y0035098D01*
X0137743Y0035019D01*
X0137698Y0034943D01*
X0137649Y0034868D01*
X0137597Y0034796D01*
X0137542Y0034726D01*
X0137483Y0034658D01*
X0137422Y0034594D01*
X0137358Y0034532D01*
X0137291Y0034473D01*
X0137222Y0034417D01*
X0137150Y0034364D01*
X0137076Y0034314D01*
X0137000Y0034268D01*
X0136922Y0034225D01*
X0136842Y0034186D01*
X0136760Y0034150D01*
X0136677Y0034118D01*
X0136593Y0034090D01*
X0136507Y0034065D01*
X0136420Y0034045D01*
X0136333Y0034028D01*
X0136244Y0034015D01*
X0136156Y0034006D01*
X0136067Y0034001D01*
X0135978Y0034000D01*
X0135889Y0034003D01*
X0135800Y0034010D01*
X0135711Y0034021D01*
X0135623Y0034036D01*
X0135536Y0034054D01*
X0135450Y0034077D01*
X0135365Y0034103D01*
X0135281Y0034134D01*
X0135199Y0034168D01*
X0135118Y0034205D01*
X0135039Y0034246D01*
X0134962Y0034291D01*
X0134887Y0034339D01*
X0134814Y0034390D01*
X0134743Y0034444D01*
X0134675Y0034502D01*
X0134610Y0034562D01*
X0134547Y0034626D01*
X0134487Y0034692D01*
X0134430Y0034761D01*
X0134377Y0034832D01*
X0134326Y0034905D01*
X0134279Y0034981D01*
X0134236Y0035058D01*
X0134195Y0035138D01*
X0134159Y0035219D01*
X0134126Y0035302D01*
X0134097Y0035386D01*
X0134071Y0035472D01*
X0134049Y0035558D01*
X0134032Y0035645D01*
X0134018Y0035733D01*
X0134008Y0035822D01*
X0134002Y0035911D01*
X0134000Y0036000D01*
X0134000Y0046000D02*
X0134002Y0046089D01*
X0134008Y0046178D01*
X0134018Y0046267D01*
X0134032Y0046355D01*
X0134049Y0046442D01*
X0134071Y0046528D01*
X0134097Y0046614D01*
X0134126Y0046698D01*
X0134159Y0046781D01*
X0134195Y0046862D01*
X0134236Y0046942D01*
X0134279Y0047019D01*
X0134326Y0047095D01*
X0134377Y0047168D01*
X0134430Y0047239D01*
X0134487Y0047308D01*
X0134547Y0047374D01*
X0134610Y0047438D01*
X0134675Y0047498D01*
X0134743Y0047556D01*
X0134814Y0047610D01*
X0134887Y0047661D01*
X0134962Y0047709D01*
X0135039Y0047754D01*
X0135118Y0047795D01*
X0135199Y0047832D01*
X0135281Y0047866D01*
X0135365Y0047897D01*
X0135450Y0047923D01*
X0135536Y0047946D01*
X0135623Y0047964D01*
X0135711Y0047979D01*
X0135800Y0047990D01*
X0135889Y0047997D01*
X0135978Y0048000D01*
X0136067Y0047999D01*
X0136156Y0047994D01*
X0136244Y0047985D01*
X0136333Y0047972D01*
X0136420Y0047955D01*
X0136507Y0047935D01*
X0136593Y0047910D01*
X0136677Y0047882D01*
X0136760Y0047850D01*
X0136842Y0047814D01*
X0136922Y0047775D01*
X0137000Y0047732D01*
X0137076Y0047686D01*
X0137150Y0047636D01*
X0137222Y0047583D01*
X0137291Y0047527D01*
X0137358Y0047468D01*
X0137422Y0047406D01*
X0137483Y0047342D01*
X0137542Y0047274D01*
X0137597Y0047204D01*
X0137649Y0047132D01*
X0137698Y0047057D01*
X0137743Y0046981D01*
X0137785Y0046902D01*
X0137823Y0046822D01*
X0137858Y0046740D01*
X0137889Y0046656D01*
X0137917Y0046571D01*
X0137940Y0046485D01*
X0137960Y0046398D01*
X0137976Y0046311D01*
X0137988Y0046222D01*
X0137996Y0046134D01*
X0138000Y0046045D01*
X0138000Y0045955D01*
X0137996Y0045866D01*
X0137988Y0045778D01*
X0137976Y0045689D01*
X0137960Y0045602D01*
X0137940Y0045515D01*
X0137917Y0045429D01*
X0137889Y0045344D01*
X0137858Y0045260D01*
X0137823Y0045178D01*
X0137785Y0045098D01*
X0137743Y0045019D01*
X0137698Y0044943D01*
X0137649Y0044868D01*
X0137597Y0044796D01*
X0137542Y0044726D01*
X0137483Y0044658D01*
X0137422Y0044594D01*
X0137358Y0044532D01*
X0137291Y0044473D01*
X0137222Y0044417D01*
X0137150Y0044364D01*
X0137076Y0044314D01*
X0137000Y0044268D01*
X0136922Y0044225D01*
X0136842Y0044186D01*
X0136760Y0044150D01*
X0136677Y0044118D01*
X0136593Y0044090D01*
X0136507Y0044065D01*
X0136420Y0044045D01*
X0136333Y0044028D01*
X0136244Y0044015D01*
X0136156Y0044006D01*
X0136067Y0044001D01*
X0135978Y0044000D01*
X0135889Y0044003D01*
X0135800Y0044010D01*
X0135711Y0044021D01*
X0135623Y0044036D01*
X0135536Y0044054D01*
X0135450Y0044077D01*
X0135365Y0044103D01*
X0135281Y0044134D01*
X0135199Y0044168D01*
X0135118Y0044205D01*
X0135039Y0044246D01*
X0134962Y0044291D01*
X0134887Y0044339D01*
X0134814Y0044390D01*
X0134743Y0044444D01*
X0134675Y0044502D01*
X0134610Y0044562D01*
X0134547Y0044626D01*
X0134487Y0044692D01*
X0134430Y0044761D01*
X0134377Y0044832D01*
X0134326Y0044905D01*
X0134279Y0044981D01*
X0134236Y0045058D01*
X0134195Y0045138D01*
X0134159Y0045219D01*
X0134126Y0045302D01*
X0134097Y0045386D01*
X0134071Y0045472D01*
X0134049Y0045558D01*
X0134032Y0045645D01*
X0134018Y0045733D01*
X0134008Y0045822D01*
X0134002Y0045911D01*
X0134000Y0046000D01*
X0134000Y0056000D02*
X0134002Y0056089D01*
X0134008Y0056178D01*
X0134018Y0056267D01*
X0134032Y0056355D01*
X0134049Y0056442D01*
X0134071Y0056528D01*
X0134097Y0056614D01*
X0134126Y0056698D01*
X0134159Y0056781D01*
X0134195Y0056862D01*
X0134236Y0056942D01*
X0134279Y0057019D01*
X0134326Y0057095D01*
X0134377Y0057168D01*
X0134430Y0057239D01*
X0134487Y0057308D01*
X0134547Y0057374D01*
X0134610Y0057438D01*
X0134675Y0057498D01*
X0134743Y0057556D01*
X0134814Y0057610D01*
X0134887Y0057661D01*
X0134962Y0057709D01*
X0135039Y0057754D01*
X0135118Y0057795D01*
X0135199Y0057832D01*
X0135281Y0057866D01*
X0135365Y0057897D01*
X0135450Y0057923D01*
X0135536Y0057946D01*
X0135623Y0057964D01*
X0135711Y0057979D01*
X0135800Y0057990D01*
X0135889Y0057997D01*
X0135978Y0058000D01*
X0136067Y0057999D01*
X0136156Y0057994D01*
X0136244Y0057985D01*
X0136333Y0057972D01*
X0136420Y0057955D01*
X0136507Y0057935D01*
X0136593Y0057910D01*
X0136677Y0057882D01*
X0136760Y0057850D01*
X0136842Y0057814D01*
X0136922Y0057775D01*
X0137000Y0057732D01*
X0137076Y0057686D01*
X0137150Y0057636D01*
X0137222Y0057583D01*
X0137291Y0057527D01*
X0137358Y0057468D01*
X0137422Y0057406D01*
X0137483Y0057342D01*
X0137542Y0057274D01*
X0137597Y0057204D01*
X0137649Y0057132D01*
X0137698Y0057057D01*
X0137743Y0056981D01*
X0137785Y0056902D01*
X0137823Y0056822D01*
X0137858Y0056740D01*
X0137889Y0056656D01*
X0137917Y0056571D01*
X0137940Y0056485D01*
X0137960Y0056398D01*
X0137976Y0056311D01*
X0137988Y0056222D01*
X0137996Y0056134D01*
X0138000Y0056045D01*
X0138000Y0055955D01*
X0137996Y0055866D01*
X0137988Y0055778D01*
X0137976Y0055689D01*
X0137960Y0055602D01*
X0137940Y0055515D01*
X0137917Y0055429D01*
X0137889Y0055344D01*
X0137858Y0055260D01*
X0137823Y0055178D01*
X0137785Y0055098D01*
X0137743Y0055019D01*
X0137698Y0054943D01*
X0137649Y0054868D01*
X0137597Y0054796D01*
X0137542Y0054726D01*
X0137483Y0054658D01*
X0137422Y0054594D01*
X0137358Y0054532D01*
X0137291Y0054473D01*
X0137222Y0054417D01*
X0137150Y0054364D01*
X0137076Y0054314D01*
X0137000Y0054268D01*
X0136922Y0054225D01*
X0136842Y0054186D01*
X0136760Y0054150D01*
X0136677Y0054118D01*
X0136593Y0054090D01*
X0136507Y0054065D01*
X0136420Y0054045D01*
X0136333Y0054028D01*
X0136244Y0054015D01*
X0136156Y0054006D01*
X0136067Y0054001D01*
X0135978Y0054000D01*
X0135889Y0054003D01*
X0135800Y0054010D01*
X0135711Y0054021D01*
X0135623Y0054036D01*
X0135536Y0054054D01*
X0135450Y0054077D01*
X0135365Y0054103D01*
X0135281Y0054134D01*
X0135199Y0054168D01*
X0135118Y0054205D01*
X0135039Y0054246D01*
X0134962Y0054291D01*
X0134887Y0054339D01*
X0134814Y0054390D01*
X0134743Y0054444D01*
X0134675Y0054502D01*
X0134610Y0054562D01*
X0134547Y0054626D01*
X0134487Y0054692D01*
X0134430Y0054761D01*
X0134377Y0054832D01*
X0134326Y0054905D01*
X0134279Y0054981D01*
X0134236Y0055058D01*
X0134195Y0055138D01*
X0134159Y0055219D01*
X0134126Y0055302D01*
X0134097Y0055386D01*
X0134071Y0055472D01*
X0134049Y0055558D01*
X0134032Y0055645D01*
X0134018Y0055733D01*
X0134008Y0055822D01*
X0134002Y0055911D01*
X0134000Y0056000D01*
X0134000Y0066000D02*
X0134002Y0066089D01*
X0134008Y0066178D01*
X0134018Y0066267D01*
X0134032Y0066355D01*
X0134049Y0066442D01*
X0134071Y0066528D01*
X0134097Y0066614D01*
X0134126Y0066698D01*
X0134159Y0066781D01*
X0134195Y0066862D01*
X0134236Y0066942D01*
X0134279Y0067019D01*
X0134326Y0067095D01*
X0134377Y0067168D01*
X0134430Y0067239D01*
X0134487Y0067308D01*
X0134547Y0067374D01*
X0134610Y0067438D01*
X0134675Y0067498D01*
X0134743Y0067556D01*
X0134814Y0067610D01*
X0134887Y0067661D01*
X0134962Y0067709D01*
X0135039Y0067754D01*
X0135118Y0067795D01*
X0135199Y0067832D01*
X0135281Y0067866D01*
X0135365Y0067897D01*
X0135450Y0067923D01*
X0135536Y0067946D01*
X0135623Y0067964D01*
X0135711Y0067979D01*
X0135800Y0067990D01*
X0135889Y0067997D01*
X0135978Y0068000D01*
X0136067Y0067999D01*
X0136156Y0067994D01*
X0136244Y0067985D01*
X0136333Y0067972D01*
X0136420Y0067955D01*
X0136507Y0067935D01*
X0136593Y0067910D01*
X0136677Y0067882D01*
X0136760Y0067850D01*
X0136842Y0067814D01*
X0136922Y0067775D01*
X0137000Y0067732D01*
X0137076Y0067686D01*
X0137150Y0067636D01*
X0137222Y0067583D01*
X0137291Y0067527D01*
X0137358Y0067468D01*
X0137422Y0067406D01*
X0137483Y0067342D01*
X0137542Y0067274D01*
X0137597Y0067204D01*
X0137649Y0067132D01*
X0137698Y0067057D01*
X0137743Y0066981D01*
X0137785Y0066902D01*
X0137823Y0066822D01*
X0137858Y0066740D01*
X0137889Y0066656D01*
X0137917Y0066571D01*
X0137940Y0066485D01*
X0137960Y0066398D01*
X0137976Y0066311D01*
X0137988Y0066222D01*
X0137996Y0066134D01*
X0138000Y0066045D01*
X0138000Y0065955D01*
X0137996Y0065866D01*
X0137988Y0065778D01*
X0137976Y0065689D01*
X0137960Y0065602D01*
X0137940Y0065515D01*
X0137917Y0065429D01*
X0137889Y0065344D01*
X0137858Y0065260D01*
X0137823Y0065178D01*
X0137785Y0065098D01*
X0137743Y0065019D01*
X0137698Y0064943D01*
X0137649Y0064868D01*
X0137597Y0064796D01*
X0137542Y0064726D01*
X0137483Y0064658D01*
X0137422Y0064594D01*
X0137358Y0064532D01*
X0137291Y0064473D01*
X0137222Y0064417D01*
X0137150Y0064364D01*
X0137076Y0064314D01*
X0137000Y0064268D01*
X0136922Y0064225D01*
X0136842Y0064186D01*
X0136760Y0064150D01*
X0136677Y0064118D01*
X0136593Y0064090D01*
X0136507Y0064065D01*
X0136420Y0064045D01*
X0136333Y0064028D01*
X0136244Y0064015D01*
X0136156Y0064006D01*
X0136067Y0064001D01*
X0135978Y0064000D01*
X0135889Y0064003D01*
X0135800Y0064010D01*
X0135711Y0064021D01*
X0135623Y0064036D01*
X0135536Y0064054D01*
X0135450Y0064077D01*
X0135365Y0064103D01*
X0135281Y0064134D01*
X0135199Y0064168D01*
X0135118Y0064205D01*
X0135039Y0064246D01*
X0134962Y0064291D01*
X0134887Y0064339D01*
X0134814Y0064390D01*
X0134743Y0064444D01*
X0134675Y0064502D01*
X0134610Y0064562D01*
X0134547Y0064626D01*
X0134487Y0064692D01*
X0134430Y0064761D01*
X0134377Y0064832D01*
X0134326Y0064905D01*
X0134279Y0064981D01*
X0134236Y0065058D01*
X0134195Y0065138D01*
X0134159Y0065219D01*
X0134126Y0065302D01*
X0134097Y0065386D01*
X0134071Y0065472D01*
X0134049Y0065558D01*
X0134032Y0065645D01*
X0134018Y0065733D01*
X0134008Y0065822D01*
X0134002Y0065911D01*
X0134000Y0066000D01*
X0134000Y0076000D02*
X0134002Y0076089D01*
X0134008Y0076178D01*
X0134018Y0076267D01*
X0134032Y0076355D01*
X0134049Y0076442D01*
X0134071Y0076528D01*
X0134097Y0076614D01*
X0134126Y0076698D01*
X0134159Y0076781D01*
X0134195Y0076862D01*
X0134236Y0076942D01*
X0134279Y0077019D01*
X0134326Y0077095D01*
X0134377Y0077168D01*
X0134430Y0077239D01*
X0134487Y0077308D01*
X0134547Y0077374D01*
X0134610Y0077438D01*
X0134675Y0077498D01*
X0134743Y0077556D01*
X0134814Y0077610D01*
X0134887Y0077661D01*
X0134962Y0077709D01*
X0135039Y0077754D01*
X0135118Y0077795D01*
X0135199Y0077832D01*
X0135281Y0077866D01*
X0135365Y0077897D01*
X0135450Y0077923D01*
X0135536Y0077946D01*
X0135623Y0077964D01*
X0135711Y0077979D01*
X0135800Y0077990D01*
X0135889Y0077997D01*
X0135978Y0078000D01*
X0136067Y0077999D01*
X0136156Y0077994D01*
X0136244Y0077985D01*
X0136333Y0077972D01*
X0136420Y0077955D01*
X0136507Y0077935D01*
X0136593Y0077910D01*
X0136677Y0077882D01*
X0136760Y0077850D01*
X0136842Y0077814D01*
X0136922Y0077775D01*
X0137000Y0077732D01*
X0137076Y0077686D01*
X0137150Y0077636D01*
X0137222Y0077583D01*
X0137291Y0077527D01*
X0137358Y0077468D01*
X0137422Y0077406D01*
X0137483Y0077342D01*
X0137542Y0077274D01*
X0137597Y0077204D01*
X0137649Y0077132D01*
X0137698Y0077057D01*
X0137743Y0076981D01*
X0137785Y0076902D01*
X0137823Y0076822D01*
X0137858Y0076740D01*
X0137889Y0076656D01*
X0137917Y0076571D01*
X0137940Y0076485D01*
X0137960Y0076398D01*
X0137976Y0076311D01*
X0137988Y0076222D01*
X0137996Y0076134D01*
X0138000Y0076045D01*
X0138000Y0075955D01*
X0137996Y0075866D01*
X0137988Y0075778D01*
X0137976Y0075689D01*
X0137960Y0075602D01*
X0137940Y0075515D01*
X0137917Y0075429D01*
X0137889Y0075344D01*
X0137858Y0075260D01*
X0137823Y0075178D01*
X0137785Y0075098D01*
X0137743Y0075019D01*
X0137698Y0074943D01*
X0137649Y0074868D01*
X0137597Y0074796D01*
X0137542Y0074726D01*
X0137483Y0074658D01*
X0137422Y0074594D01*
X0137358Y0074532D01*
X0137291Y0074473D01*
X0137222Y0074417D01*
X0137150Y0074364D01*
X0137076Y0074314D01*
X0137000Y0074268D01*
X0136922Y0074225D01*
X0136842Y0074186D01*
X0136760Y0074150D01*
X0136677Y0074118D01*
X0136593Y0074090D01*
X0136507Y0074065D01*
X0136420Y0074045D01*
X0136333Y0074028D01*
X0136244Y0074015D01*
X0136156Y0074006D01*
X0136067Y0074001D01*
X0135978Y0074000D01*
X0135889Y0074003D01*
X0135800Y0074010D01*
X0135711Y0074021D01*
X0135623Y0074036D01*
X0135536Y0074054D01*
X0135450Y0074077D01*
X0135365Y0074103D01*
X0135281Y0074134D01*
X0135199Y0074168D01*
X0135118Y0074205D01*
X0135039Y0074246D01*
X0134962Y0074291D01*
X0134887Y0074339D01*
X0134814Y0074390D01*
X0134743Y0074444D01*
X0134675Y0074502D01*
X0134610Y0074562D01*
X0134547Y0074626D01*
X0134487Y0074692D01*
X0134430Y0074761D01*
X0134377Y0074832D01*
X0134326Y0074905D01*
X0134279Y0074981D01*
X0134236Y0075058D01*
X0134195Y0075138D01*
X0134159Y0075219D01*
X0134126Y0075302D01*
X0134097Y0075386D01*
X0134071Y0075472D01*
X0134049Y0075558D01*
X0134032Y0075645D01*
X0134018Y0075733D01*
X0134008Y0075822D01*
X0134002Y0075911D01*
X0134000Y0076000D01*
D11*
X0044937Y0026000D03*
X0037063Y0026000D03*
D12*
X0063500Y0156000D03*
D13*
X0063500Y0146000D03*
X0063500Y0136000D03*
X0063500Y0126000D03*
X0063500Y0116000D03*
X0063500Y0106000D03*
X0063500Y0096000D03*
X0063500Y0086000D03*
X0063500Y0076000D03*
X0063500Y0066000D03*
X0063500Y0056000D03*
X0063500Y0046000D03*
X0063500Y0036000D03*
X0063500Y0026000D03*
X0093500Y0026000D03*
X0093500Y0036000D03*
X0093500Y0046000D03*
X0093500Y0056000D03*
X0093500Y0066000D03*
X0093500Y0076000D03*
X0093500Y0086000D03*
X0093500Y0096000D03*
X0093500Y0106000D03*
X0093500Y0116000D03*
X0093500Y0126000D03*
X0093500Y0136000D03*
X0093500Y0146000D03*
X0093500Y0156000D03*
D14*
X0103500Y0128500D03*
X0103500Y0098500D03*
X0126000Y0166000D03*
X0136000Y0166000D03*
X0043500Y0168500D03*
X0013500Y0168500D03*
X0013500Y0128500D03*
X0013500Y0118500D03*
X0013500Y0108500D03*
X0013500Y0098500D03*
X0013500Y0088500D03*
X0013500Y0078500D03*
X0016000Y0036700D03*
X0016000Y0026000D03*
X0016000Y0015300D03*
D15*
X0132300Y0016000D02*
X0139700Y0016000D01*
X0139700Y0026000D02*
X0132300Y0026000D01*
X0132300Y0036000D02*
X0139700Y0036000D01*
X0139700Y0046000D02*
X0132300Y0046000D01*
X0132300Y0056000D02*
X0139700Y0056000D01*
X0139700Y0066000D02*
X0132300Y0066000D01*
X0132300Y0076000D02*
X0139700Y0076000D01*
X0139700Y0096000D02*
X0132300Y0096000D01*
X0132300Y0106000D02*
X0139700Y0106000D01*
X0139700Y0116000D02*
X0132300Y0116000D01*
X0132300Y0126000D02*
X0139700Y0126000D01*
X0139700Y0136000D02*
X0132300Y0136000D01*
X0132300Y0146000D02*
X0139700Y0146000D01*
D16*
X0046500Y0041000D03*
X0035500Y0041000D03*
X0034000Y0156000D03*
X0023000Y0156000D03*
D17*
X0013500Y0146500D01*
X0013500Y0128500D01*
X0013500Y0118500D02*
X0046000Y0118500D01*
X0063500Y0136000D01*
X0063500Y0156000D02*
X0051000Y0156000D01*
X0034000Y0156000D01*
X0043500Y0163500D02*
X0051000Y0156000D01*
X0043500Y0163500D02*
X0043500Y0168500D01*
X0021000Y0176000D02*
X0131000Y0176000D01*
X0136000Y0171000D01*
X0136000Y0166000D01*
X0136000Y0146000D01*
X0136000Y0096000D02*
X0131000Y0096000D01*
X0121000Y0086000D01*
X0121000Y0026000D01*
X0131000Y0016000D01*
X0136000Y0026000D02*
X0141000Y0026000D01*
X0093500Y0086000D02*
X0083500Y0096000D01*
X0063500Y0096000D01*
X0036000Y0091000D02*
X0036000Y0041500D01*
X0035500Y0041000D02*
X0037063Y0039437D01*
X0037063Y0026000D01*
X0036000Y0024937D02*
X0017063Y0024937D01*
X0016000Y0036700D02*
X0016000Y0058500D01*
X0006000Y0068500D01*
X0006000Y0161000D01*
X0013500Y0168500D01*
X0021000Y0176000D01*
X0013500Y0098500D02*
X0028500Y0098500D01*
X0036000Y0091000D01*
D18*
X0063500Y0106000D02*
X0076000Y0118500D01*
X0076000Y0168500D01*
X0078500Y0171000D01*
X0116000Y0171000D01*
X0116000Y0146000D01*
X0126000Y0136000D01*
X0136000Y0136000D01*
X0136000Y0126000D02*
X0121000Y0126000D01*
X0111000Y0116000D01*
X0111000Y0081000D01*
X0103500Y0073500D01*
X0103500Y0056000D01*
X0093500Y0046000D01*
X0131000Y0016000D02*
X0136000Y0016000D01*
X0141000Y0026000D02*
X0146000Y0031000D01*
X0146000Y0141000D01*
X0141000Y0146000D01*
X0136000Y0146000D01*
X0036000Y0041500D02*
X0035500Y0041000D01*
X0037063Y0026000D02*
X0036000Y0024937D01*
M02*
