G75*
%MOIN*%
%OFA0B0*%
%FSLAX25Y25*%
%IPPOS*%
%LPD*%
%AMOC8*
5,1,8,0,0,1.08239X$1,22.5*
%
%ADD10C,0.05700*%
%ADD11R,0.06600X0.06600*%
%ADD12C,0.06600*%
%ADD13C,0.07400*%
%ADD14C,0.07400*%
%ADD15C,0.08000*%
%ADD16C,0.03200*%
%ADD17C,0.02400*%
%ADD18C,0.01600*%
D10*
X0037063Y0026000D03*
X0044937Y0026000D03*
D11*
X0063500Y0156000D03*
D12*
X0063500Y0146000D03*
X0063500Y0136000D03*
X0063500Y0126000D03*
X0063500Y0116000D03*
X0063500Y0106000D03*
X0063500Y0096000D03*
X0063500Y0086000D03*
X0063500Y0076000D03*
X0063500Y0066000D03*
X0063500Y0056000D03*
X0063500Y0046000D03*
X0063500Y0036000D03*
X0063500Y0026000D03*
X0093500Y0026000D03*
X0093500Y0036000D03*
X0093500Y0046000D03*
X0093500Y0056000D03*
X0093500Y0066000D03*
X0093500Y0076000D03*
X0093500Y0086000D03*
X0093500Y0096000D03*
X0093500Y0106000D03*
X0093500Y0116000D03*
X0093500Y0126000D03*
X0093500Y0136000D03*
X0093500Y0146000D03*
X0093500Y0156000D03*
D13*
X0016000Y0015300D03*
X0016000Y0026000D03*
X0016000Y0036700D03*
X0013500Y0078500D03*
X0013500Y0088500D03*
X0013500Y0098500D03*
X0013500Y0108500D03*
X0013500Y0118500D03*
X0013500Y0128500D03*
X0013500Y0168500D03*
X0043500Y0168500D03*
X0103500Y0128500D03*
X0103500Y0098500D03*
X0126000Y0166000D03*
X0136000Y0166000D03*
D14*
X0132300Y0146000D02*
X0139700Y0146000D01*
X0139700Y0136000D02*
X0132300Y0136000D01*
X0132300Y0126000D02*
X0139700Y0126000D01*
X0139700Y0116000D02*
X0132300Y0116000D01*
X0132300Y0106000D02*
X0139700Y0106000D01*
X0139700Y0096000D02*
X0132300Y0096000D01*
X0132300Y0076000D02*
X0139700Y0076000D01*
X0139700Y0066000D02*
X0132300Y0066000D01*
X0132300Y0056000D02*
X0139700Y0056000D01*
X0139700Y0046000D02*
X0132300Y0046000D01*
X0132300Y0036000D02*
X0139700Y0036000D01*
X0139700Y0026000D02*
X0132300Y0026000D01*
X0132300Y0016000D02*
X0139700Y0016000D01*
D15*
X0046500Y0041000D03*
X0035500Y0041000D03*
X0034000Y0156000D03*
X0023000Y0156000D03*
D16*
X0063500Y0146000D02*
X0026000Y0108500D01*
X0013500Y0108500D01*
X0013500Y0098500D02*
X0061000Y0098500D01*
X0063500Y0096000D01*
X0063500Y0086000D02*
X0056000Y0086000D01*
X0046000Y0076000D01*
X0046500Y0075500D01*
X0046500Y0041000D01*
X0046500Y0027563D01*
X0044937Y0026000D01*
X0044937Y0017063D01*
X0056000Y0006000D01*
X0044937Y0074937D02*
X0041374Y0078500D01*
X0013500Y0078500D01*
X0044937Y0074937D02*
X0046000Y0076000D01*
X0063500Y0086000D02*
X0083500Y0086000D01*
X0093500Y0096000D01*
X0096000Y0098500D01*
X0103500Y0098500D01*
X0093500Y0106000D02*
X0103500Y0116000D01*
X0103500Y0128500D01*
X0093500Y0086000D02*
X0093500Y0076000D01*
X0136000Y0036000D02*
X0143500Y0036000D01*
X0066000Y0126000D02*
X0063500Y0126000D01*
D17*
X0066000Y0126000D02*
X0071000Y0131000D01*
X0071000Y0171000D01*
X0076000Y0176000D01*
X0141000Y0176000D01*
X0146000Y0171000D01*
X0146000Y0038500D01*
X0143500Y0036000D01*
X0141000Y0026000D02*
X0136000Y0026000D01*
X0136000Y0016000D02*
X0126000Y0006000D01*
X0056000Y0006000D01*
X0071000Y0026000D02*
X0071000Y0051000D01*
X0086000Y0066000D01*
X0093500Y0066000D01*
X0106000Y0066000D01*
X0116000Y0076000D01*
X0116000Y0113500D01*
X0118500Y0116000D01*
X0136000Y0116000D01*
X0136000Y0106000D02*
X0123500Y0106000D01*
X0121000Y0103500D01*
X0121000Y0071000D01*
X0106000Y0056000D01*
X0093500Y0056000D01*
X0086000Y0056000D01*
X0076000Y0046000D01*
X0076000Y0028500D01*
X0088500Y0016000D01*
X0113500Y0016000D01*
X0121000Y0023500D01*
X0121000Y0046000D01*
X0131000Y0056000D01*
X0136000Y0056000D01*
X0136000Y0046000D02*
X0131000Y0046000D01*
X0126000Y0041000D01*
X0126000Y0021000D01*
X0116000Y0011000D01*
X0086000Y0011000D01*
X0071000Y0026000D01*
X0081000Y0031000D02*
X0081000Y0041000D01*
X0086000Y0046000D01*
X0093500Y0046000D01*
X0093500Y0036000D02*
X0108500Y0036000D01*
X0111000Y0038500D01*
X0111000Y0051000D01*
X0111000Y0053500D01*
X0126000Y0068500D01*
X0126000Y0073500D01*
X0128500Y0076000D01*
X0136000Y0076000D01*
X0136000Y0066000D02*
X0131000Y0066000D01*
X0116000Y0051000D01*
X0116000Y0031000D01*
X0106000Y0021000D01*
X0133500Y0066000D02*
X0136000Y0066000D01*
X0103500Y0128500D02*
X0103500Y0143500D01*
X0126000Y0166000D01*
D18*
X0081000Y0031000D02*
X0091000Y0021000D01*
X0106000Y0021000D01*
M02*
