G75*
%MOIN*%
%OFA0B0*%
%FSLAX25Y25*%
%IPPOS*%
%LPD*%
%AMOC8*
5,1,8,0,0,1.08239X$1,22.5*
%
%ADD10C,0.06500*%
%ADD11R,0.07400X0.07400*%
%ADD12C,0.07400*%
%ADD13C,0.08200*%
%ADD14C,0.08062*%
%ADD15C,0.08246*%
%ADD16C,0.08200*%
%ADD17C,0.04800*%
%ADD18C,0.00500*%
D10*
X0037063Y0026000D03*
X0044937Y0026000D03*
D11*
X0063500Y0156000D03*
D12*
X0063500Y0146000D03*
X0063500Y0136000D03*
X0063500Y0126000D03*
X0063500Y0116000D03*
X0063500Y0106000D03*
X0063500Y0096000D03*
X0063500Y0086000D03*
X0063500Y0076000D03*
X0063500Y0066000D03*
X0063500Y0056000D03*
X0063500Y0046000D03*
X0063500Y0036000D03*
X0063500Y0026000D03*
X0093500Y0026000D03*
X0093500Y0036000D03*
X0093500Y0046000D03*
X0093500Y0056000D03*
X0093500Y0066000D03*
X0093500Y0076000D03*
X0093500Y0086000D03*
X0093500Y0096000D03*
X0093500Y0106000D03*
X0093500Y0116000D03*
X0093500Y0126000D03*
X0093500Y0136000D03*
X0093500Y0146000D03*
X0093500Y0156000D03*
D13*
X0126000Y0166000D03*
X0136000Y0166000D03*
X0013500Y0128500D03*
X0013500Y0118500D03*
X0013500Y0108500D03*
X0013500Y0098500D03*
X0013500Y0088500D03*
X0013500Y0078500D03*
D14*
X0043500Y0168500D03*
X0103500Y0128500D03*
D15*
X0103500Y0098500D03*
X0013500Y0168500D03*
D16*
X0132300Y0146000D02*
X0139700Y0146000D01*
X0139700Y0136000D02*
X0132300Y0136000D01*
X0132300Y0126000D02*
X0139700Y0126000D01*
X0139700Y0116000D02*
X0132300Y0116000D01*
X0132300Y0106000D02*
X0139700Y0106000D01*
X0139700Y0096000D02*
X0132300Y0096000D01*
X0132300Y0076000D02*
X0139700Y0076000D01*
X0139700Y0066000D02*
X0132300Y0066000D01*
X0132300Y0056000D02*
X0139700Y0056000D01*
X0139700Y0046000D02*
X0132300Y0046000D01*
X0132300Y0036000D02*
X0139700Y0036000D01*
X0139700Y0026000D02*
X0132300Y0026000D01*
X0132300Y0016000D02*
X0139700Y0016000D01*
D17*
X0136000Y0016000D03*
X0136000Y0026000D03*
X0136000Y0036000D03*
X0136000Y0046000D03*
X0136000Y0056000D03*
X0136000Y0066000D03*
X0136000Y0076000D03*
D18*
X0013564Y0012808D02*
X0013135Y0013318D01*
X0012814Y0013902D01*
X0012613Y0014538D01*
X0012540Y0015200D01*
X0012602Y0015892D01*
X0012798Y0016558D01*
X0013120Y0017173D01*
X0013556Y0017713D01*
X0014088Y0018158D01*
X0014698Y0018490D01*
X0015360Y0018697D01*
X0016050Y0018770D01*
X0016731Y0018689D01*
X0017382Y0018476D01*
X0017979Y0018140D01*
X0018500Y0017694D01*
X0018923Y0017155D01*
X0019233Y0016543D01*
X0019418Y0015883D01*
X0019470Y0015200D01*
X0019392Y0014533D01*
X0019185Y0013894D01*
X0018857Y0013308D01*
X0018421Y0012797D01*
X0017894Y0012381D01*
X0017296Y0012075D01*
X0016649Y0011893D01*
X0015980Y0011840D01*
X0015316Y0011897D01*
X0014676Y0012083D01*
X0014084Y0012391D01*
X0013564Y0012808D01*
X0013432Y0012964D02*
X0018564Y0012964D01*
X0018944Y0013463D02*
X0013056Y0013463D01*
X0012795Y0013961D02*
X0019207Y0013961D01*
X0019368Y0014460D02*
X0012638Y0014460D01*
X0012567Y0014958D02*
X0019442Y0014958D01*
X0019450Y0015457D02*
X0012563Y0015457D01*
X0012621Y0015955D02*
X0019398Y0015955D01*
X0019258Y0016454D02*
X0012767Y0016454D01*
X0013005Y0016952D02*
X0019025Y0016952D01*
X0018690Y0017451D02*
X0013344Y0017451D01*
X0013839Y0017949D02*
X0018201Y0017949D01*
X0017431Y0018448D02*
X0014621Y0018448D01*
X0015299Y0022620D02*
X0014663Y0022808D01*
X0014075Y0023116D01*
X0013559Y0023534D01*
X0013134Y0024044D01*
X0012817Y0024627D01*
X0012620Y0025260D01*
X0012550Y0025920D01*
X0012615Y0026608D01*
X0012813Y0027270D01*
X0013136Y0027881D01*
X0013572Y0028417D01*
X0014104Y0028858D01*
X0014712Y0029186D01*
X0015373Y0029390D01*
X0016060Y0029460D01*
X0016729Y0029383D01*
X0017371Y0029178D01*
X0017960Y0028851D01*
X0018473Y0028415D01*
X0018892Y0027888D01*
X0019200Y0027289D01*
X0019385Y0026641D01*
X0019441Y0025970D01*
X0019368Y0025298D01*
X0019165Y0024654D01*
X0018841Y0024061D01*
X0018407Y0023544D01*
X0017880Y0023120D01*
X0017281Y0022808D01*
X0016633Y0022619D01*
X0015960Y0022560D01*
X0015299Y0022620D01*
X0014422Y0022934D02*
X0017523Y0022934D01*
X0018269Y0023433D02*
X0013684Y0023433D01*
X0013228Y0023932D02*
X0018732Y0023932D01*
X0019043Y0024430D02*
X0012924Y0024430D01*
X0012723Y0024929D02*
X0019251Y0024929D01*
X0019382Y0025427D02*
X0012603Y0025427D01*
X0012551Y0025926D02*
X0019436Y0025926D01*
X0019403Y0026424D02*
X0012598Y0026424D01*
X0012709Y0026923D02*
X0019305Y0026923D01*
X0019132Y0027421D02*
X0012893Y0027421D01*
X0013167Y0027920D02*
X0018867Y0027920D01*
X0018470Y0028418D02*
X0013573Y0028418D01*
X0014213Y0028917D02*
X0017841Y0028917D01*
X0016453Y0029415D02*
X0015621Y0029415D01*
X0015930Y0033250D02*
X0015270Y0033313D01*
X0014636Y0033503D01*
X0014050Y0033814D01*
X0013537Y0034233D01*
X0013115Y0034744D01*
X0012801Y0035327D01*
X0012607Y0035961D01*
X0012541Y0036620D01*
X0012601Y0037301D01*
X0012792Y0037956D01*
X0013108Y0038562D01*
X0013536Y0039094D01*
X0014060Y0039533D01*
X0014659Y0039861D01*
X0015311Y0040066D01*
X0015990Y0040140D01*
X0016669Y0040066D01*
X0017321Y0039862D01*
X0017920Y0039533D01*
X0018444Y0039095D01*
X0018872Y0038562D01*
X0019188Y0037957D01*
X0019380Y0037301D01*
X0019440Y0036620D01*
X0019361Y0035950D01*
X0019152Y0035309D01*
X0018822Y0034720D01*
X0018383Y0034208D01*
X0017853Y0033790D01*
X0017252Y0033484D01*
X0016603Y0033302D01*
X0015930Y0033250D01*
X0014968Y0033403D02*
X0016963Y0033403D01*
X0017995Y0033902D02*
X0013942Y0033902D01*
X0013398Y0034400D02*
X0018548Y0034400D01*
X0018922Y0034899D02*
X0013032Y0034899D01*
X0012780Y0035397D02*
X0019181Y0035397D01*
X0019343Y0035896D02*
X0012627Y0035896D01*
X0012563Y0036394D02*
X0019413Y0036394D01*
X0019416Y0036893D02*
X0012565Y0036893D01*
X0012627Y0037391D02*
X0019354Y0037391D01*
X0019208Y0037890D02*
X0012773Y0037890D01*
X0013018Y0038388D02*
X0018963Y0038388D01*
X0018611Y0038887D02*
X0013369Y0038887D01*
X0013883Y0039385D02*
X0018097Y0039385D01*
X0017250Y0039884D02*
X0014731Y0039884D01*
X0031770Y0041080D02*
X0031848Y0041800D01*
X0032066Y0042490D01*
X0032414Y0043124D01*
X0032879Y0043678D01*
X0033443Y0044131D01*
X0034085Y0044465D01*
X0034779Y0044667D01*
X0035500Y0044730D01*
X0036225Y0044669D01*
X0036923Y0044467D01*
X0037569Y0044133D01*
X0038138Y0043679D01*
X0038607Y0043123D01*
X0038958Y0042486D01*
X0039178Y0041793D01*
X0039259Y0041070D01*
X0039210Y0040410D01*
X0039046Y0039769D01*
X0038774Y0039166D01*
X0038401Y0038620D01*
X0037939Y0038147D01*
X0037401Y0037761D01*
X0036805Y0037474D01*
X0036168Y0037295D01*
X0035510Y0037230D01*
X0034852Y0037297D01*
X0034215Y0037478D01*
X0033620Y0037766D01*
X0033083Y0038153D01*
X0032622Y0038628D01*
X0032251Y0039175D01*
X0031980Y0039779D01*
X0031818Y0040420D01*
X0031770Y0041080D01*
X0031784Y0040881D02*
X0039245Y0040881D01*
X0039225Y0041379D02*
X0031802Y0041379D01*
X0031873Y0041878D02*
X0039151Y0041878D01*
X0038993Y0042376D02*
X0032030Y0042376D01*
X0032277Y0042875D02*
X0038743Y0042875D01*
X0038395Y0043373D02*
X0032623Y0043373D01*
X0033120Y0043872D02*
X0037896Y0043872D01*
X0037110Y0044370D02*
X0033903Y0044370D01*
X0031827Y0040382D02*
X0039203Y0040382D01*
X0039075Y0039884D02*
X0031953Y0039884D01*
X0032156Y0039385D02*
X0038873Y0039385D01*
X0038583Y0038887D02*
X0032446Y0038887D01*
X0032855Y0038388D02*
X0038175Y0038388D01*
X0037581Y0037890D02*
X0033448Y0037890D01*
X0034520Y0037391D02*
X0036510Y0037391D01*
X0043000Y0039779D02*
X0042838Y0040420D01*
X0042790Y0041080D01*
X0042868Y0041800D01*
X0043086Y0042490D01*
X0043434Y0043124D01*
X0043899Y0043678D01*
X0044463Y0044131D01*
X0045105Y0044465D01*
X0045799Y0044667D01*
X0046520Y0044730D01*
X0047245Y0044669D01*
X0047944Y0044467D01*
X0048590Y0044133D01*
X0049158Y0043679D01*
X0049627Y0043123D01*
X0049978Y0042486D01*
X0050199Y0041793D01*
X0050280Y0041070D01*
X0050230Y0040410D01*
X0050066Y0039769D01*
X0049794Y0039166D01*
X0049421Y0038620D01*
X0048959Y0038147D01*
X0048421Y0037761D01*
X0047825Y0037474D01*
X0047188Y0037295D01*
X0046530Y0037230D01*
X0045872Y0037297D01*
X0045235Y0037478D01*
X0044640Y0037766D01*
X0044103Y0038153D01*
X0043642Y0038628D01*
X0043271Y0039175D01*
X0043000Y0039779D01*
X0042973Y0039884D02*
X0050095Y0039884D01*
X0050223Y0040382D02*
X0042847Y0040382D01*
X0042804Y0040881D02*
X0050265Y0040881D01*
X0050245Y0041379D02*
X0042822Y0041379D01*
X0042893Y0041878D02*
X0050172Y0041878D01*
X0050013Y0042376D02*
X0043050Y0042376D01*
X0043297Y0042875D02*
X0049764Y0042875D01*
X0049415Y0043373D02*
X0043643Y0043373D01*
X0044140Y0043872D02*
X0048916Y0043872D01*
X0048130Y0044370D02*
X0044923Y0044370D01*
X0043176Y0039385D02*
X0049893Y0039385D01*
X0049603Y0038887D02*
X0043466Y0038887D01*
X0043875Y0038388D02*
X0049195Y0038388D01*
X0048601Y0037890D02*
X0044468Y0037890D01*
X0045540Y0037391D02*
X0047530Y0037391D01*
X0018002Y0012466D02*
X0013991Y0012466D01*
X0015075Y0011967D02*
X0016913Y0011967D01*
X0022980Y0152270D02*
X0023701Y0152333D01*
X0024395Y0152535D01*
X0025037Y0152869D01*
X0025601Y0153322D01*
X0026066Y0153876D01*
X0026414Y0154510D01*
X0026632Y0155200D01*
X0026710Y0155920D01*
X0026662Y0156580D01*
X0026500Y0157221D01*
X0026229Y0157825D01*
X0025858Y0158372D01*
X0025397Y0158847D01*
X0024860Y0159234D01*
X0024265Y0159522D01*
X0023628Y0159703D01*
X0022970Y0159770D01*
X0022312Y0159705D01*
X0021675Y0159526D01*
X0021079Y0159239D01*
X0020541Y0158853D01*
X0020079Y0158380D01*
X0019706Y0157834D01*
X0019434Y0157231D01*
X0019270Y0156590D01*
X0019220Y0155930D01*
X0019301Y0155207D01*
X0019522Y0154514D01*
X0019873Y0153877D01*
X0020342Y0153321D01*
X0020910Y0152867D01*
X0021556Y0152533D01*
X0022255Y0152331D01*
X0022980Y0152270D01*
X0024419Y0152547D02*
X0021529Y0152547D01*
X0020687Y0153046D02*
X0025257Y0153046D01*
X0025788Y0153544D02*
X0020154Y0153544D01*
X0019782Y0154043D02*
X0026158Y0154043D01*
X0026424Y0154541D02*
X0019513Y0154541D01*
X0019355Y0155040D02*
X0026581Y0155040D01*
X0026669Y0155539D02*
X0019264Y0155539D01*
X0019229Y0156037D02*
X0026702Y0156037D01*
X0026665Y0156536D02*
X0019266Y0156536D01*
X0019384Y0157034D02*
X0026547Y0157034D01*
X0026360Y0157533D02*
X0019570Y0157533D01*
X0019841Y0158031D02*
X0026089Y0158031D01*
X0025705Y0158530D02*
X0020225Y0158530D01*
X0020785Y0159028D02*
X0025146Y0159028D01*
X0024250Y0159527D02*
X0021678Y0159527D01*
X0030454Y0157231D02*
X0030726Y0157834D01*
X0031099Y0158380D01*
X0031561Y0158853D01*
X0032099Y0159239D01*
X0032695Y0159526D01*
X0033332Y0159705D01*
X0033990Y0159770D01*
X0034648Y0159703D01*
X0035285Y0159522D01*
X0035880Y0159234D01*
X0036417Y0158847D01*
X0036878Y0158372D01*
X0037249Y0157825D01*
X0037520Y0157221D01*
X0037682Y0156580D01*
X0037730Y0155920D01*
X0037652Y0155200D01*
X0037434Y0154510D01*
X0037086Y0153876D01*
X0036621Y0153322D01*
X0036057Y0152869D01*
X0035415Y0152535D01*
X0034721Y0152333D01*
X0034000Y0152270D01*
X0033275Y0152331D01*
X0032577Y0152533D01*
X0031931Y0152867D01*
X0031362Y0153321D01*
X0030893Y0153877D01*
X0030542Y0154514D01*
X0030322Y0155207D01*
X0030241Y0155930D01*
X0030290Y0156590D01*
X0030454Y0157231D01*
X0030404Y0157034D02*
X0037567Y0157034D01*
X0037685Y0156536D02*
X0030286Y0156536D01*
X0030249Y0156037D02*
X0037722Y0156037D01*
X0037689Y0155539D02*
X0030284Y0155539D01*
X0030375Y0155040D02*
X0037601Y0155040D01*
X0037444Y0154541D02*
X0030533Y0154541D01*
X0030802Y0154043D02*
X0037178Y0154043D01*
X0036808Y0153544D02*
X0031174Y0153544D01*
X0031707Y0153046D02*
X0036278Y0153046D01*
X0035439Y0152547D02*
X0032549Y0152547D01*
X0030590Y0157533D02*
X0037381Y0157533D01*
X0037109Y0158031D02*
X0030861Y0158031D01*
X0031245Y0158530D02*
X0036725Y0158530D01*
X0036166Y0159028D02*
X0031805Y0159028D01*
X0032698Y0159527D02*
X0035270Y0159527D01*
M02*
